# xmcd CD database file
#
# Track frame offsets:
#	150
#	17695
#	36015
#	55007
#	69625
#	82305
#	98829
#	131477
#	156795
#	176232
#
# Disc length: 2505 seconds
#
# Revision: 0
# Processed by: cddbd v1.4PL0 Copyright (c) Steve Scherf et al.
# Submitted via: NeoAudio 9.9.9
#
DISCID=8209c70a
DTITLE=Memphis James Trio - Fit For A King
DYEAR=1997
DGENRE=Blues
TTITLE0=What You Want Me To Do
TTITLE1=Help Me
TTITLE2=Night Time Is The Right Time
TTITLE3=Blow Wind Blow
TTITLE4=Mustache Sally
TTITLE5=Southpaw Shuffle
TTITLE6=Moon Is Rising
TTITLE7=Gotta Move On
TTITLE8=Whon't Be Hanging Around
TTITLE9=The Star Spangled Banner
EXTD=YEAR: 1997
EXTT0=
EXTT1=
EXTT2=
EXTT3=
EXTT4=
EXTT5=
EXTT6=
EXTT7=
EXTT8=
EXTT9=
PLAYORDER=
